<?xml version="1.0" encoding="UTF-8" standalone="no"?>
<!DOCTYPE svg PUBLIC "-//W3C//DTD SVG 1.1//EN" "http://www.w3.org/Graphics/SVG/1.1/DTD/svg11.dtd">
<svg version="1.1" xmlns="http://www.w3.org/2000/svg" xmlns:xlink="http://www.w3.org/1999/xlink" preserveAspectRatio="xMidYMid meet" viewBox="0 0 640 640" width="640" height="640"><defs><path d="M110.08 272.13C110.08 324.54 125.57 373.38 152.19 414.34C144.7 415.36 134.72 419.58 121.98 430.59C111.42 441.15 26.94 525.63 16.38 536.19C16.38 536.19 -17.28 582.59 39.17 615.42C39.17 615.42 84.67 647.3 111.1 615.42C121.3 605.23 202.86 523.67 213.06 513.47C213.06 513.47 222.4 505.66 225.98 489.34C267.71 517.44 317.89 533.89 371.9 533.89C516.22 533.89 633.66 416.45 633.66 272.13C633.6 127.81 516.16 10.37 371.84 10.37C227.52 10.37 110.08 127.81 110.08 272.13ZM174.78 272.19C174.78 163.52 263.17 75.14 371.84 75.14C480.51 75.14 568.9 163.52 568.9 272.19C568.9 380.8 480.51 469.25 371.84 469.25C263.17 469.25 174.78 380.86 174.78 272.19Z" id="a9eofHF0"></path></defs><g><g><g><use xlink:href="#a9eofHF0" opacity="1" fill="#ffffff" fill-opacity="0.5"></use><g><use xlink:href="#a9eofHF0" opacity="1" fill-opacity="0" stroke="#000000" stroke-width="1" stroke-opacity="0"></use></g></g></g></g></svg>